<svg xmlns="http://www.w3.org/2000/svg" width="197" height="29" viewBox="0 0 197 29" fill="none"><path d="M11.2995 10.4687C11.2995 4.94608 15.7765 0.468994 21.2992 0.468994C26.8219 0.468994 31.2989 4.94604 31.2989 10.4687L31.3054 18.5315C31.3054 19.2488 31.8869 19.8303 32.6043 19.8303C33.3216 19.8303 33.9031 19.2488 33.9031 18.5315L33.9031 15.1663C33.9031 12.5719 36.0063 10.4687 38.6007 10.4687H42.604L42.604 18.5315C42.6039 24.0541 38.1269 28.5311 32.6043 28.5311C27.0816 28.5311 22.6045 24.0542 22.6046 18.5315L22.598 10.4687C22.5981 9.7514 22.0165 9.16984 21.2992 9.16984C20.5819 9.16984 20.0004 9.75141 20.0003 10.4687L19.9994 18.5315C19.9994 24.0541 15.5223 28.5311 9.99969 28.5311C4.47698 28.5311 -3.15993e-05 24.0542 1.671e-10 18.5315L0 10.4687H4.00326C6.59767 10.4687 8.70086 12.5719 8.70085 15.1663L8.70084 18.5315C8.70084 19.2488 9.28236 19.8303 9.99969 19.8303C10.717 19.8303 11.2995 19.2488 11.2995 18.5315V10.4687Z" fill="#85B32A"></path><path fill-rule="evenodd" clip-rule="evenodd" d="M58.8601 7.68253V12.8045H56.1755V25.9451H49.4286V17.5905C49.4286 14.6194 51.2382 12.8039 54.8509 12.799L46.7793 12.8045V7.68253H49.4286V2.56055L54.5075 2.56055C55.4287 2.56056 56.1755 3.30733 56.1755 4.22852V7.68253H58.8601ZM187.177 13.119C188.908 13.119 189.72 14.1788 189.72 15.8743V25.9063H196.467V13.6489C196.467 9.62196 194.242 7.14928 190.674 7.14928C188.06 7.14928 185.623 8.66821 184.28 11.0349V9.31178C184.28 8.39059 183.533 7.64381 182.612 7.64381H177.569V25.9063H184.28V14.2494C184.951 13.6842 186.011 13.119 187.177 13.119ZM126.741 15.9129C126.741 14.2174 125.929 13.1577 124.198 13.1577C123.032 13.1577 121.972 13.7228 121.301 14.288V25.945H114.589V7.68243H119.633C120.554 7.68243 121.301 8.4292 121.301 9.35039V11.0735C122.643 8.70682 125.081 7.18789 127.695 7.18789C131.262 7.18789 133.488 9.66057 133.488 13.6875V25.945H126.741V15.9129ZM144.902 7.18804C150.907 7.18804 154.969 11.2856 154.969 16.7962C154.969 22.4127 150.907 26.4396 144.902 26.4396C138.826 26.4396 134.799 22.4127 134.799 16.7962C134.799 11.2856 138.826 7.18804 144.902 7.18804ZM144.902 13.0519C142.606 13.0519 141.051 14.7121 141.051 16.7962C141.051 18.951 142.606 20.6112 144.902 20.6112C147.162 20.6112 148.752 18.951 148.752 16.7962C148.752 14.7121 147.162 13.0519 144.902 13.0519ZM166.212 7.18804C172.217 7.18804 176.279 11.2856 176.279 16.7962C176.279 22.4127 172.217 26.4396 166.212 26.4396C160.136 26.4396 156.109 22.4127 156.109 16.7962C156.109 11.2856 160.136 7.18804 166.212 7.18804ZM166.213 13.0519C163.917 13.0519 162.363 14.7121 162.363 16.7962C162.363 18.951 163.917 20.6112 166.213 20.6112C168.474 20.6112 170.063 18.951 170.063 16.7962C170.063 14.7121 168.474 13.0519 166.213 13.0519ZM93.7786 15.9129C93.7786 14.2174 93.0015 13.1577 91.2706 13.1577C90.1049 13.1577 89.0452 13.7228 88.3741 14.288V25.945H81.6625V7.68243H86.7061C87.6273 7.68243 88.3741 8.4292 88.3741 9.35039V11.0735C89.6811 8.70682 92.1184 7.18789 94.7677 7.18789C97.523 7.18789 99.5011 8.70682 100.208 11.2855C101.55 8.77747 104.093 7.18789 106.813 7.18789C110.381 7.18789 112.606 9.66057 112.606 13.6875V25.945H105.859V15.9129C105.859 14.2174 105.047 13.1577 103.316 13.1577C102.186 13.1577 101.197 13.6875 100.526 14.2527V25.945H93.7786V15.9129ZM79.682 25.945H73.1824V22.6951C71.946 25.0972 69.756 26.4395 67.3186 26.4395C62.8324 26.4395 59.406 22.4125 59.406 16.796C59.406 11.2502 62.8324 7.18789 67.3186 7.18789C69.756 7.18789 71.9107 8.5302 73.1824 10.8969V7.68243H78.014C78.9352 7.68243 79.682 8.4226 79.682 9.3438V25.945ZM69.727 20.6527C68.9265 20.6527 68.1834 20.4066 67.5694 19.9858C66.681 19.4352 66.0633 18.4798 65.9318 17.281C65.9145 17.1336 65.9056 16.9835 65.9056 16.8314L65.9057 16.8144L65.9056 16.796C65.9056 15.3276 66.6275 14.1708 67.7134 13.5829C68.2981 13.2197 68.988 13.01 69.727 13.01C71.8375 13.01 73.5484 14.7209 73.5484 16.8314C73.5484 18.9418 71.8375 20.6527 69.727 20.6527Z" fill="#FFFFFF"></path></svg>